<?xml version="1.0" encoding="iso-8859-1"?>
<!-- Uploaded to: SVG Repo, www.svgrepo.com, Generator: SVG Repo Mixer Tools -->
<svg version="1.1" id="Layer_1" xmlns="http://www.w3.org/2000/svg" xmlns:xlink="http://www.w3.org/1999/xlink" 
	 viewBox="0 0 512.001 512.001" xml:space="preserve">
<path style="fill:#FF932A;" d="M278.116,60.768l-0.006-15.571c0-20.762-16.83-37.592-37.592-37.592v37.592v19.937
	c-71.866,16.973-125.349,81.524-125.349,158.575c0,89.985,72.943,162.933,162.926,162.941l0,0h67.054v-43.439
	c0-37.027-30.013-67.045-67.038-67.053v-76.235c8.244-2.376,16.023-6.804,22.519-13.3c0.001-0.001,0.002-0.002,0.003-0.003
	l33.195,33.195l0.05,0.05c2.894,2.882,6.883,4.664,11.29,4.664s8.396-1.783,11.29-4.664l0.05-0.05l40.326-40.329L278.116,60.768z"/>
<path style="fill:#FFFFFF;" d="M278.094,363.834c-77.256-0.007-140.109-62.868-140.109-140.125h15.211
	c0,68.871,56.03,124.908,124.9,124.915L278.094,363.834z"/>
<rect x="88.69" y="451.333" style="fill:#37B3CC;" width="334.626" height="53.065"/>
<path style="fill:#02DEAE;" d="M367.2,418.12h-22.053v-31.469H166.855v31.469h-22.052c-18.341,0-33.21,14.869-33.21,33.21H400.41
	C400.41,432.989,385.542,418.12,367.2,418.12z"/>
<g>
	<path style="fill:#002770;" d="M407.293,443.725c-3.574-18.883-20.188-33.21-40.094-33.21h-14.447v-16.259v-15.211v-35.833
		c0-38.591-29.44-70.441-67.038-74.272v-63.574c5.108-2.027,9.927-4.764,14.341-8.158c0.077-0.06,0.157-0.116,0.234-0.175
		l28.221,28.221c4.456,4.436,10.372,6.879,16.656,6.879c6.285,0,12.201-2.443,16.719-6.941l45.705-45.705L285.72,57.616
		l-0.006-12.419C285.714,20.276,265.439,0,240.517,0h-7.605v59.23c-34.422,9.46-65.475,29.862-87.952,57.907
		c-24.115,30.088-37.396,67.936-37.396,106.573c0,68.956,41.142,128.486,100.167,155.336h-48.481v31.47h-14.447
		c-19.907,0-36.52,14.327-40.094,33.21H81.083v68.275h349.834v-68.275h-23.624V443.725z M122.774,223.709
		c0-35.702,11.775-69.264,34.054-97.06c21.635-26.993,51.977-46.21,85.438-54.113l5.857-1.383V16.187
		c12.864,3.376,22.381,15.102,22.381,29.013l0.008,18.718l115.567,115.568l-34.987,34.988c-1.586,1.579-3.691,2.448-5.926,2.448
		c-2.235,0-4.338-0.869-5.962-2.485l-37.015-37.014l-7.062,3.41l-0.604,1.105c-0.122,0.117-0.242,0.233-0.365,0.348
		c-0.444,0.416-0.896,0.822-1.357,1.218c-0.155,0.134-0.309,0.271-0.465,0.403c-4.777,4-10.354,6.987-16.331,8.709l-0.676,0.195
		c-3.796,1.027-7.748,1.57-11.787,1.57c-24.729,0-44.846-20.118-44.846-44.845c0-24.729,20.118-44.846,44.846-44.846V89.478
		c-33.115,0-60.057,26.941-60.057,60.057c0,33.115,26.941,60.056,60.057,60.056c2.345,0,4.668-0.149,6.963-0.413v66.981v7.603v24.55
		h15.211v-24.043c29.19,3.755,51.827,28.749,51.827,58.943v35.833h-59.447C192.451,379.038,122.774,309.354,122.774,223.709z
		 M144.802,425.726h22.052h7.605h112.162v-15.211H174.46v-16.259h103.634h59.448v16.259h-30.638v15.211h30.639h7.605H367.2
		c11.471,0,21.205,7.583,24.452,17.999H120.35C123.597,433.309,133.331,425.726,144.802,425.726z M415.708,496.789H96.294v-11.322
		h70.561v-15.211H96.294v-11.322h7.693h304.028h7.693L415.708,496.789L415.708,496.789z"/>
	<rect x="187.133" y="470.255" style="fill:#002770;" width="44.234" height="15.211"/>
</g>
</svg>